<?xml version="1.0" encoding="utf-8"?>
<!-- Generator: Adobe Illustrator 18.0.0, SVG Export Plug-In . SVG Version: 6.00 Build 0)  -->
<!DOCTYPE svg PUBLIC "-//W3C//DTD SVG 1.1//EN" "http://www.w3.org/Graphics/SVG/1.1/DTD/svg11.dtd">
<svg version="1.1" xmlns="http://www.w3.org/2000/svg" xmlns:xlink="http://www.w3.org/1999/xlink" x="0px" y="0px"
	 viewBox="0 0 600 150" enable-background="new 0 0 600 150" xml:space="preserve">
<g id="rahmen">
	<path fill="#243C00" d="M586,150H14c-7.7,0-14-6.3-14-14V14C0,6.3,6.3,0,14,0h572c7.7,0,14,6.3,14,14v122
		C600,143.7,593.7,150,586,150z"/>
	<rect x="108.4" y="145.7" fill="#243C00" width="45.8" height="17"/>
</g>
<g id="logo">
	<g>
		<g>
			<path fill="#244900" d="M218.8,99.7c5.4,34.8-16.4,68.8-51.2,77.8c-34.8,9-70.3-10.2-82.4-43.3l21.3-5.5l4,15.3
				c2.8,11,14.1,17.7,25.1,14.8c10.9-2.8,17.6-14.2,14.8-25.1l-3.9-15.3l11.1-2.9l4,15.3c2.8,10.9,14.1,17.6,25.1,14.8
				c11-2.8,17.7-14.1,14.8-25.1l-3.9-15.3L218.8,99.7z"/>
			<path fill="#244900" d="M81.8,120.9c-5.1-32.6,13.7-64.4,44.7-75.7l-2.3-9c-0.9-3.6,1.3-7.4,4.9-8.3c3.6-0.9,7.4,1.3,8.3,4.9
				l2.3,9c32.6-5.1,64.4,13.7,75.7,44.7l-34.6,8.9l7.4,28.6c0.9,3.6-1.3,7.4-4.9,8.3c-3.7,0.9-7.4-1.3-8.4-4.9l-7.3-28.5l-37.8,9.8
				l7.4,28.5c0.9,3.7-1.3,7.4-4.9,8.4c-3.6,0.9-7.4-1.3-8.3-4.9l-7.4-28.6L81.8,120.9z M195.7,77.4c-13.1-18.1-36.4-27.3-59.4-21.4
				c-23,5.9-38.9,25.2-41.7,47.4L195.7,77.4z"/>
			<g>
				<path fill="#99CC00" d="M120.5,73.3c-4.7,1.2-7.6,6.1-6.4,10.8c1.2,4.7,6,7.6,10.8,6.4c4.7-1.2,7.6-6.1,6.4-10.8
					C130.1,74.9,125.3,72,120.5,73.3z"/>
				<path fill="#99CC00" d="M158.4,63.5c-4.7,1.2-7.6,6.1-6.4,10.8c1.2,4.7,6.1,7.6,10.8,6.4c4.7-1.2,7.6-6.1,6.4-10.8
					C168,65.1,163.2,62.3,158.4,63.5z"/>
			</g>
			<path fill="#99CC00" d="M126.3,17.2c6.8-1.7,13.9,0.9,17.9,6.6l-3.3,5.6c-2-5.3-7.7-8.2-13.2-6.8c-5.5,1.4-9,6.7-8.2,12.3
				l-5.7-3.3C114.6,24.7,119.5,18.9,126.3,17.2L126.3,17.2z"/>
			<path fill="#99CC00" d="M123.8,7.4c9.3-2.4,19.1,0.3,25.8,7.1l-3,5.1c-5.3-6.1-13.5-8.8-21.4-6.8c-7.9,2-13.9,8.4-15.5,16.3
				l-5.1-3C107.2,17,114.5,9.8,123.8,7.4L123.8,7.4z"/>
		</g>
	</g>
</g>
<g id="text">
	<g>
		<path fill="#457127" d="M222.2,85.4l8.8,22.9l4.4,11.4l-4.4,11.4l-8.8-22.9v26.4h-14.1V85.4H222.2z M239.8,108.2l-3.5,9.1
			l-4.4-11.4l7.9-20.6h14.1v49.2h-14.1V108.2z"/>
		<path fill="#457127" d="M271.5,85.4l8.8,22.9l4.4,11.4l-4.4,11.4l-8.8-22.9v26.4h-14.1V85.4H271.5z M289,108.2l-3.5,9.1l-4.4-11.4
			l7.9-20.6h14.1v49.2H289V108.2z"/>
		<path fill="#457127" d="M306.6,109.1v-2.6l15.8-21.1h9.7v12.3h-3.5l-7.9,11.4H306.6z M320.7,110.9l7.9,11.4h3.5v12.3h-9.7
			l-15.8-21.1v-2.6H320.7z M345.3,109.1l-7.9-11.4h-3.5V85.4h9.7l15.8,21.1v2.6H345.3z M359.3,110.9v2.6l-15.8,21.1h-9.7v-12.3h3.5
			l7.9-11.4H359.3z"/>
		<path fill="#457127" d="M374.1,95.2h11.2v22.5l-12.7,16.9h-9.8v-9.8h4.9l6.3-9.1V95.2z"/>
		<path fill="#457127" d="M408.6,124.8V95.2h11.2v39.4h-30.9V95.2h11.2v29.5H408.6z"/>
		<path fill="#457127" d="M454.3,129.7v4.9H443l-8.4-16.9l0,16.9h-11.2V95.2h11.2L454.3,129.7z M443,107.9V95.2h11.2v32L443,107.9z"
			/>
		<path fill="#457127" d="M469,95.2v19.7l-1.4,3.5l1.4,2.8v13.4h-11.2V95.2H469z M488.7,95.2l-8.4,22.5H469l8.4-22.5H488.7z
			 M480.3,119.1l8.4,15.5h-11.2l-8.4-15.5H480.3z"/>
		<path fill="#457127" d="M503.4,95.2v39.4h-11.2V95.2H503.4z"/>
		<path fill="#457127" d="M507,114.2v-2.1l12.7-16.9h23.9v9.8h-19l-6.3,9.1H507z M518.2,115.6l6.3,9.1h19v9.8h-23.9L507,117.7v-2.1
			H518.2z M543.6,110v9.8h-20.4l-3.5-4.9l3.5-4.9H543.6z"/>
		<path fill="#457127" d="M561.1,95.2l22.5,0v9.8h-17.5l-3.6,4.2h21.1v9.8l-14.1,15.5h-14.1l14.1-15.5h-22.5v-5.6L561.1,95.2z"/>
	</g>
	<circle fill="#99CC00" cx="333" cy="110" r="3.5"/>
</g>
</svg>
